<svg width="173" height="25" viewBox="0 0 173 25" fill="none" xmlns="http://www.w3.org/2000/svg">
<g clip-path="url(#clip0_50_36843)">
<path d="M17.85 12.13C17.17 11.62 16.4 11.19 15.54 10.85C14.68 10.51 13.79 10.22 12.89 9.97C11.98 9.72 11.1 9.49 10.24 9.29C9.38 9.09 8.6 8.85 7.91 8.59C7.22 8.33 6.67 8.02 6.28 7.67C5.88 7.32 5.68 6.87 5.68 6.33C5.68 5.85 5.86 5.44 6.21 5.09C6.56 4.74 7.07 4.47 7.74 4.29C8.41 4.11 9.22 4.02 10.17 4.02C11.05 4.02 11.82 4.14 12.48 4.39C13.14 4.64 13.65 4.98 14.01 5.41C14.37 5.84 14.55 6.36 14.55 6.97V7.24H19.48V6.83C19.48 5.65 19.24 4.63 18.75 3.77C18.26 2.91 17.59 2.19 16.73 1.63C15.87 1.06 14.87 0.65 13.74 0.39C12.61 0.13 11.41 0 10.14 0C8.78 0 7.52 0.13 6.37 0.39C5.21 0.65 4.19 1.05 3.31 1.6C2.43 2.14 1.74 2.84 1.25 3.67C0.76 4.51 0.52 5.51 0.52 6.66C0.52 7.75 0.72 8.68 1.13 9.45C1.54 10.22 2.08 10.86 2.76 11.35C3.44 11.85 4.21 12.27 5.07 12.62C5.93 12.97 6.82 13.27 7.72 13.5C8.63 13.74 9.51 13.97 10.37 14.2C11.23 14.43 12.01 14.68 12.7 14.95C13.39 15.22 13.94 15.55 14.33 15.94C14.73 16.33 14.93 16.82 14.93 17.44C14.93 17.78 14.87 18.09 14.74 18.36C14.62 18.63 14.42 18.87 14.16 19.07C13.9 19.27 13.57 19.45 13.17 19.6C12.77 19.75 12.32 19.86 11.81 19.94C11.3 20.02 10.72 20.06 10.06 20.06C9.04 20.06 8.14 19.94 7.37 19.69C6.6 19.44 6.02 19.07 5.62 18.57C5.22 18.07 5.02 17.46 5.02 16.73V16.42C5.02 16.31 5.03 16.22 5.05 16.15H0.03C0.01 16.22 0 16.31 0 16.44V16.8C0 18.11 0.27 19.23 0.8 20.15C1.33 21.07 2.07 21.83 3.01 22.43C3.95 23.03 5.03 23.47 6.26 23.74C7.48 24.01 8.78 24.15 10.14 24.15C12.07 24.15 13.78 23.9 15.27 23.4C16.77 22.9 17.94 22.11 18.81 21.02C19.67 19.93 20.1 18.49 20.1 16.7C20.1 15.66 19.9 14.76 19.49 14.01C19.08 13.26 18.54 12.63 17.86 12.12L17.85 12.13Z" fill="#2A2A2A"/>
<path d="M28.1701 9.66504V0.415039H23.1001V23.735H28.1701V13.945H35.0901V9.66504H28.1701Z" fill="#2A2A2A"/>
<path d="M38.0901 6.37504V9.66504V13.945V17.255V23.735H43.1601V0.415039H38.0901V6.37504Z" fill="#2A2A2A"/>
<path d="M51.2299 0.415039H46.1599V23.735H51.2299V0.415039Z" fill="#2A2A2A"/>
<path d="M69.9 12.995V15.135H69.73C69.66 14.975 69.54 14.765 69.36 14.485C69.18 14.215 68.99 13.935 68.78 13.655C68.58 13.375 68.41 13.155 68.27 12.995L58.89 0.415039H54.23V23.735H59.02V8.91504H59.19C59.3 9.11504 59.48 9.41504 59.73 9.79504C59.98 10.185 60.22 10.535 60.44 10.845L70.03 23.735H74.69V0.415039H69.9V12.995Z" fill="#2A2A2A"/>
<path d="M89.4899 15.505C89.4899 16.885 89.2099 17.945 88.6399 18.685C88.0699 19.425 87.2299 19.785 86.1199 19.785C85.0099 19.785 84.0999 19.535 83.5199 19.025C82.9399 18.515 82.6499 17.735 82.6499 16.695V15.645H77.6899V16.695C77.6899 18.325 78.0199 19.675 78.6899 20.745C79.3599 21.815 80.3199 22.605 81.5799 23.145C82.8399 23.675 84.3599 23.945 86.1499 23.945C87.9399 23.945 89.4599 23.635 90.7199 23.025C91.9799 22.415 92.9399 21.475 93.5899 20.215C94.2499 18.955 94.5799 17.385 94.5799 15.505V0.204956H89.4799V15.505H89.4899Z" fill="#2A2A2A"/>
<path d="M102.65 0.415039H97.5801V23.735H102.65V0.415039Z" fill="#2A2A2A"/>
<path d="M121.32 12.995V15.135H121.15C121.08 14.975 120.96 14.765 120.78 14.485C120.6 14.215 120.41 13.935 120.2 13.655C120 13.375 119.83 13.155 119.69 12.995L110.31 0.415039H105.65V23.735H110.44V8.91504H110.61C110.72 9.11504 110.9 9.41504 111.15 9.79504C111.4 10.185 111.64 10.535 111.86 10.845L121.45 23.735H126.11V0.415039H121.32V12.995Z" fill="#2A2A2A"/>
<path d="M134.17 9.66504V0.415039H129.11V23.735H134.17V13.945H141.09V9.66504H134.17Z" fill="#2A2A2A"/>
<path d="M144.1 9.66504H144.09V13.945H144.1V23.735H149.16V0.415039H144.1V9.66504Z" fill="#2A2A2A"/>
<path d="M157.26 13.875H169.23V9.76504H157.26V4.56504H170.79V0.415039H152.16V23.735H171V19.555H157.26V13.875Z" fill="#2A2A2A"/>
</g>
<defs>
<clipPath id="clip0_50_36843">
<rect width="173" height="24.15" fill="white"/>
</clipPath>
</defs>
</svg>
